# xmcd
#
# Track frame offsets: 
#        150
#        17415
#        37943
#        61463
#        80337
#        104822
#        124195
#        141969
#        165172
#
# Disc length: 2442 seconds
#
# Revision: 0
# Processed by: cddbd v1.5.2PL0 Copyright (c) Steve Scherf et al.
# Submitted via: ExactAudioCopy v0.99pb4
#
DISCID=6d098809
DTITLE=Picnic - Robert Earl Keen
DYEAR=1997
DGENRE=Country
TTITLE0=Undone
TTITLE1=Over the Waterfall
TTITLE2=Levelland
TTITLE3=I Wonder Where My Baby is Tonight
TTITLE4=Oh Rosie
TTITLE5=Runnin with the Night
TTITLE6=The Coming Home of the Son and Brother
TTITLE7=Shades of Gray
TTITLE8=Fourth of July
EXTD=
EXTT0=
EXTT1=
EXTT2=
EXTT3=
EXTT4=
EXTT5=
EXTT6=
EXTT7=
EXTT8=
PLAYORDER=
